HIERARCHY
ROOT root
{
	OFFSET	0	13.1	24.9
	CHANNELS 6  Xposition Yposition Zposition Xrotation Yrotation Zrotation
	JOINT spine_1
	{
		OFFSET	0	9.99999	0
		CHANNELS 3  Xrotation Yrotation Zrotation
		JOINT spine_2
		{
			OFFSET	0	112	-10
			CHANNELS 3  Xrotation Yrotation Zrotation
			JOINT spine_3
			{
				OFFSET	0	206.5	19.3
				CHANNELS 3  Xrotation Yrotation Zrotation
				JOINT spine_4
				{
					OFFSET	0	110.4	14.6
					CHANNELS 3  Xrotation Yrotation Zrotation
					JOINT neck_1
					{
						OFFSET	0	71.8	-50.3
						CHANNELS 3  Xrotation Yrotation Zrotation
						JOINT neck_2
						{
							OFFSET	0	86.2	-25.8
							CHANNELS 3  Xrotation Yrotation Zrotation
							JOINT head_ee
							{
								OFFSET	0	179.8	-8.7
								CHANNELS 3  Xrotation Yrotation Zrotation
								End Site
								{
									OFFSET	1	0	0
								}
							}
						}
					}
					JOINT left_clavicle
					{
						OFFSET	-43.2	22.4	-70.8
						CHANNELS 3  Xrotation Yrotation Zrotation
						JOINT left_shoulder
						{
							OFFSET	-93.9	-5.79999	48.7
							CHANNELS 3  Xrotation Yrotation Zrotation
							JOINT left_elbow
							{
								OFFSET	-291.4	-30.8	15.2
								CHANNELS 3  Xrotation Yrotation Zrotation
								JOINT left_lowarm_twist
								{
									OFFSET	-110.7	-3.89999	13.6
									CHANNELS 3  Xrotation Yrotation Zrotation
									JOINT left_hand
									{
										OFFSET	-110.7	-3.89999	13.6
										CHANNELS 3  Xrotation Yrotation Zrotation
										JOINT left_ee
										{
											OFFSET	-80.8	-5.10001	12.1
											CHANNELS 3  Xrotation Yrotation Zrotation
											End Site
											{
												OFFSET	1	0	0
											}
										}
									}
								}
							}
						}
					}
					JOINT right_clavicle
					{
						OFFSET	43.2	22.4	-70.8
						CHANNELS 3  Xrotation Yrotation Zrotation
						JOINT right_shoulder
						{
							OFFSET	93.9	-5.79999	48.7
							CHANNELS 3  Xrotation Yrotation Zrotation
							JOINT right_elbow
							{
								OFFSET	291.4	-30.8	15.2
								CHANNELS 3  Xrotation Yrotation Zrotation
								JOINT right_lowarm_twist
								{
									OFFSET	110.7	-3.89999	13.6
									CHANNELS 3  Xrotation Yrotation Zrotation
									JOINT right_hand
									{
										OFFSET	110.7	-3.89999	13.6
										CHANNELS 3  Xrotation Yrotation Zrotation
										JOINT right_ee
										{
											OFFSET	80.8	-5.10001	12.1
											CHANNELS 3  Xrotation Yrotation Zrotation
											End Site
											{
												OFFSET	1	0	0
											}
										}
									}
								}
							}
						}
					}
				}
			}
		}
	}
	JOINT left_hip
	{
		OFFSET	-82.8	-127.5	0.300001
		CHANNELS 3  Xrotation Yrotation Zrotation
		JOINT left_knee
		{
			OFFSET	-28.2	-396.7	2.2
			CHANNELS 3  Xrotation Yrotation Zrotation
			JOINT left_ankle
			{
				OFFSET	-11.7	-411.3	35.4
				CHANNELS 3  Xrotation Yrotation Zrotation
				JOINT left_toes
				{
					OFFSET	0	-60	-88.6
					CHANNELS 3  Xrotation Yrotation Zrotation
					JOINT left_foot_ee
					{
						OFFSET	-22.5	-16.5	-42.2
						CHANNELS 3  Xrotation Yrotation Zrotation
						End Site
						{
							OFFSET	1	0	0
						}
					}
				}
			}
		}
	}
	JOINT right_hip
	{
		OFFSET	82.8	-127.5	0.300001
		CHANNELS 3  Xrotation Yrotation Zrotation
		JOINT right_knee
		{
			OFFSET	28.2	-396.7	2.2
			CHANNELS 3  Xrotation Yrotation Zrotation
			JOINT right_ankle
			{
				OFFSET	11.7	-411.3	35.4
				CHANNELS 3  Xrotation Yrotation Zrotation
				JOINT right_toes
				{
					OFFSET	0	-60	-88.6
					CHANNELS 3  Xrotation Yrotation Zrotation
					JOINT right_foot_ee
					{
						OFFSET	22.5	-16.5	-42.2
						CHANNELS 3  Xrotation Yrotation Zrotation
						End Site
						{
							OFFSET	1	0	0
						}
					}
				}
			}
		}
	}
}
MOTION
Frames: 8
Frame Time: 0.02
777.546 762.342 -1561.82 174.806 70.534 175.891 -3.28245 0.688553 3.79061 -3.27457 0.446132 3.82667 -3.23321 -0.584336 3.80805 -3.25344 0.023944 3.85248 2.48029 4.6403 -2.82832 2.63445 10.513 -2.79034 -0.0 0.0 -0.0 -2.3302 -14.0729 -6.61888 -20.8094 -13.0274 70.6425 0.937419 -24.9084 0.207039 -60.8085 -5.38347 5.12564 1.12842 10.5638 11.6591 -0.0 0.0 -0.0 9.64129 -1.45118 -18.8476 0.5295 1.71597 -63.2186 3.02823 56.3 -1.62059 11.8359 -0.264341 1.48615 3.03586 4.11379 -19.0503 0.0 0.0 0.0 8.73296 13.6404 2.20366 -3.6051 0.131555 0.53754 -17.7828 -27.9442 3.33004 19.9857 -0.0 -0.0 -0.0 0.0 -0.0 4.25003 6.57633 1.05009 -1.89659 -0.0734317 -0.281785 18.5226 -27.7316 2.71715 -12.7492 0.0 0.0 0.0 0.0 0.0 
767.048 764.786 -1563.07 177.485 69.887 173.789 -3.16235 0.575296 3.71858 -3.15472 0.337677 3.7476 -3.12208 -0.660934 3.70434 -3.14122 -0.0680398 3.76214 2.31131 4.86698 -1.90847 2.43481 10.1395 -1.73644 -0.0 0.0 -0.0 -2.39109 -14.1323 -6.75746 -20.8903 -13.0289 70.4523 0.964637 -25.5405 0.218638 -61.0976 -5.41956 5.13404 1.0313 11.3113 11.3016 -0.0 0.0 -0.0 9.66224 -1.61634 -18.8815 0.157683 1.72119 -63.6326 3.28391 58.4068 -1.83592 11.774 -0.263762 1.47826 3.20933 3.89068 -20.3864 0.0 0.0 0.0 8.29814 13.5952 2.16636 -2.79638 0.104994 0.416268 -17.989 -28.3398 3.38646 19.572 -0.0 -0.0 -0.0 0.0 -0.0 4.22923 6.70343 0.915883 -3.69813 -0.1345 -0.551514 19.7874 -27.8633 2.89068 -12.1444 0.0 0.0 0.0 0.0 0.0 
757.036 764.615 -1561.83 176.257 69.3766 175.26 -3.1528 0.445498 3.6727 -3.14532 0.211054 3.69357 -3.12185 -0.769066 3.61888 -3.14007 -0.188289 3.6948 2.07058 5.20972 -1.07123 2.17539 10.0476 -0.764195 -0.0 0.0 -0.0 -2.41777 -14.1609 -6.81857 -21.0741 -13.1091 70.4523 1.00244 -26.4076 0.235196 -61.1888 -5.43096 5.13665 1.02128 11.2793 11.2247 -0.0 0.0 -0.0 9.68508 -1.69982 -18.9233 -0.471312 1.55178 -63.9837 3.33573 58.8052 -1.88015 11.6858 -0.262922 1.46702 3.34363 3.63223 -21.4649 0.0 0.0 0.0 8.5126 13.7135 2.39901 -2.67848 0.100979 0.398619 -18.1599 -28.7442 3.43731 19.2581 -0.0 -0.0 -0.0 0.0 -0.0 4.37079 6.86315 0.377152 -6.11631 -0.203073 -0.916264 21.5867 -27.9577 3.13227 -11.6747 0.0 0.0 0.0 0.0 0.0 
745.512 765.357 -1567.83 174.394 68.9297 177.392 -3.13158 0.365736 3.58613 -3.12444 0.136951 3.60211 -3.1067 -0.815619 3.51134 -3.12381 -0.251209 3.59595 1.83852 5.28406 -0.873932 1.93779 10.0261 -0.523369 -0.0 0.0 -0.0 -2.48014 -14.0674 -6.93934 -21.6061 -13.1455 70.3509 1.02695 -26.9627 0.2462 -61.2342 -5.43663 5.13794 1.01265 11.2389 11.1538 -0.0 0.0 -0.0 9.74888 -1.65076 -19.0553 -0.563146 1.49716 -64.1653 3.40753 59.3425 -1.94174 11.5603 -0.261699 1.45104 3.48869 3.29046 -22.6645 0.0 0.0 0.0 9.99125 14.0564 3.2091 -2.28113 0.0871795 0.3392 -18.231 -28.8773 3.45703 18.856 -0.0 -0.0 -0.0 0.0 -0.0 3.5892 7.36672 -0.789774 -9.51459 -0.273288 -1.43294 24.0883 -27.0674 3.43737 -11.0164 0.0 0.0 0.0 0.0 0.0 
735.221 765.766 -1563.72 173.809 68.1165 177.617 -3.08272 0.269451 3.60923 -3.07548 0.0393938 3.61905 -3.06418 -0.911779 3.50268 -3.08113 -0.347532 3.60256 1.5871 5.30902 -0.531978 1.67562 9.79923 -0.127094 -0.0 0.0 -0.0 -2.46564 -14.2022 -6.92688 -21.3671 -13.3018 70.3436 1.04788 -27.4328 0.255771 -61.2937 -5.44407 5.13963 1.00139 11.1815 11.0594 -0.0 0.0 -0.0 9.84833 -1.57935 -19.2613 -0.69772 1.39487 -64.3144 3.31992 58.6846 -1.86663 11.41 -0.260186 1.43191 3.4714 2.91644 -22.6971 0.0 0.0 0.0 9.65538 13.9655 2.89585 -2.89514 0.10833 0.431058 -18.2337 -28.9565 3.46123 18.7932 -0.0 -0.0 -0.0 0.0 -0.0 3.11287 7.34863 -0.618855 -10.164 -0.283211 -1.5321 24.4052 -26.9186 3.47431 -10.9648 0.0 0.0 0.0 0.0 0.0 
724.416 764.208 -1561.97 173.616 67.8503 177.737 -3.16885 0.104617 3.64671 -3.16146 -0.127487 3.64598 -3.16106 -1.08608 3.483 -3.17761 -0.52276 3.61061 1.24032 5.32013 -0.133459 1.31696 9.50909 0.333935 -0.0 0.0 -0.0 -2.41642 -14.4718 -6.85838 -20.9976 -13.5329 70.3587 1.07745 -28.0896 0.26954 -61.3475 -5.4508 5.14115 0.985421 11.0988 10.9251 -0.0 0.0 -0.0 9.93498 -1.50156 -19.4421 -1.17993 1.15056 -64.5034 3.15972 57.4137 -1.7307 11.2091 -0.258086 1.40633 3.44236 2.41727 -22.6956 0.0 0.0 0.0 9.04868 13.8385 2.46936 -3.85134 0.139301 0.574536 -18.2399 -29.0647 3.46748 18.7247 -0.0 -0.0 -0.0 0.0 -0.0 3.02496 7.39287 -0.600579 -10.3446 -0.285771 -1.55969 24.8394 -26.5987 3.52198 -10.927 0.0 0.0 0.0 0.0 0.0 
718.362 775.955 -1559.44 175.902 68.0674 175.758 -3.1122 0.00498721 3.66624 -3.10475 -0.228157 3.65915 -3.11121 -1.18382 3.47011 -3.12747 -0.621301 3.61329 1.28488 5.36657 0.16472 1.35701 9.33982 0.661205 -0.0 0.0 -0.0 -2.35392 -14.8456 -6.77511 -20.4846 -13.7956 70.3897 1.11861 -28.9911 0.289208 -61.4235 -5.4603 5.14329 0.952697 11.1483 10.7309 -0.0 0.0 -0.0 10.0655 -1.38379 -19.7153 -1.7956 0.834071 -64.803 2.96783 55.7657 -1.5705 11.0893 -0.256792 1.39109 3.41387 2.02003 -22.654 0.0 0.0 0.0 9.04333 13.7953 2.43752 -4.01018 0.144214 0.598419 -18.2028 -29.2187 3.46762 18.7637 -0.0 -0.0 -0.0 0.0 -0.0 2.82241 7.44196 -0.623779 -10.5517 -0.288599 -1.59134 24.9744 -26.5766 3.53843 -10.8817 0.0 0.0 0.0 0.0 0.0 
712.35 773.677 -1556.03 175.964 68.5348 175.598 -3.10345 -0.00610219 3.71625 -3.0958 -0.242399 3.70835 -3.10321 -1.21009 3.51398 -3.11987 -0.640327 3.66075 1.35529 5.46123 0.56176 1.42324 9.17092 1.09954 -0.0 0.0 -0.0 -2.34165 -14.6709 -6.72504 -19.9681 -13.8882 70.6029 1.17414 -30.1827 0.316627 -61.5023 -5.47015 5.14549 0.924979 11.2121 10.5749 -0.0 0.0 -0.0 10.1858 -1.09121 -19.9789 -2.12966 0.584786 -64.893 2.75931 53.8013 -1.40012 10.9299 -0.25502 1.3708 3.37886 1.56286 -22.5885 0.0 0.0 0.0 9.11692 13.7255 2.33337 -4.17206 0.149152 0.622771 -18.2594 -29.2626 3.48056 18.7756 -0.0 -0.0 -0.0 0.0 -0.0 2.53655 7.51215 -0.631448 -10.8132 -0.292007 -1.63132 24.8636 -26.5758 3.5245 -10.9295 0.0 0.0 0.0 0.0 0.0 
